# xmcd
# 
# Track frame offsets:
#     150
#     13401
#     26266
#     37373
#     45161
#     54970
#     65762
#     81788
#     94025
#     106787
#     119169
#     130412
#     141470
#     156992
#     168152
#     181404
#     193730
#     205318
#     215651
#     231857
# 
# Disc length: 3211
# 
# Revision: 3
# Processed by: cddbd v1.5.2PL0 Copyright (c) Steve Scherf et al.
# Submitted via: fre:ac v1.1beta1pre4
# 
DISCID=270c8914
DTITLE=Various Artist - L'Intégrale Country
DYEAR=2010
DGENRE=Country
TTITLE0=Dave Dudley - The Pool Shark
TTITLE1=TG Shepard - Devil In The Bottle
TTITLE2=Hank Thompson - Humpty Dumpty Heart
TTITLE3=Johnny Cash - If The Good Lord's Willing
TTITLE4=Willie Nelson - Half a Man
TTITLE5=Patsy Cline - Stop Look And Listen
TTITLE6=Kenny Rogers - Tulsa Turnaround
TTITLE7=Lynn Anderson - Stand By Your Man
TTITLE8=Donna Fargo - Don't Be Angry
TTITLE9=Johnny Paycheck - Take This Job And Shove It
TTITLE10=Ferlin Husky - San Antone Rose
TTITLE11=Johnny Cash - Cry! Cry! Cry!
TTITLE12=Exile - Crazy for your love
TTITLE13=Hank Locklin - Sand Me The Pillow You Dream On
TTITLE14=Hank Williams - Jambalaya (On The Bayou)
TTITLE15=Dolly Parton - Two Little Orphans
TTITLE16=Don Gibson - Just Can't Stop Loving You
TTITLE17=Willie Nelson - Pride Wins Again
TTITLE18=Lynn Anderson - Devil Went Down To Georgia
TTITLE19=Johnny Cash - Remember Me
EXTD=
EXTT0=
EXTT1=
EXTT2=
EXTT3=
EXTT4=
EXTT5=
EXTT6=
EXTT7=
EXTT8=
EXTT9=
EXTT10=
EXTT11=
EXTT12=
EXTT13=
EXTT14=
EXTT15=
EXTT16=
EXTT17=
EXTT18=
EXTT19=
PLAYORDER=
